  0
SECTION
  2
HEADER
  9
$ACADVER
  1
AC1027
  9
$ACADMAINTVER
 70
105
  9
$DWGCODEPAGE
  3
ANSI_1252
  9
$LASTSAVEDBY
  1
ezdxf
  9
$REQUIREDVERSIONS
160
0
  9
$INSBASE
 10
0.0
 20
0.0
 30
0.0
  9
$EXTMIN
 10
1e+20
 20
1e+20
 30
1e+20
  9
$EXTMAX
 10
-1e+20
 20
-1e+20
 30
-1e+20
  9
$LIMMIN
 10
0.0
 20
0.0
  9
$LIMMAX
 10
420.0
 20
297.0
  9
$ORTHOMODE
 70
0
  9
$REGENMODE
 70
1
  9
$FILLMODE
 70
1
  9
$QTEXTMODE
 70
0
  9
$MIRRTEXT
 70
1
  9
$LTSCALE
 40
1.0
  9
$ATTMODE
 70
1
  9
$TEXTSIZE
 40
2.5
  9
$TRACEWID
 40
1.0
  9
$TEXTSTYLE
  7
Standard
  9
$CLAYER
  8
0
  9
$CELTYPE
  6
ByLayer
  9
$CECOLOR
 62
256
  9
$CELTSCALE
 40
1.0
  9
$DISPSILH
 70
0
  9
$DIMSCALE
 40
1.0
  9
$DIMASZ
 40
2.5
  9
$DIMEXO
 40
0.625
  9
$DIMDLI
 40
3.75
  9
$DIMRND
 40
0.0
  9
$DIMDLE
 40
0.0
  9
$DIMEXE
 40
1.25
  9
$DIMTP
 40
0.0
  9
$DIMTM
 40
0.0
  9
$DIMTXT
 40
2.5
  9
$DIMCEN
 40
2.5
  9
$DIMTSZ
 40
0.0
  9
$DIMTOL
 70
0
  9
$DIMLIM
 70
0
  9
$DIMTIH
 70
0
  9
$DIMTOH
 70
0
  9
$DIMSE1
 70
0
  9
$DIMSE2
 70
0
  9
$DIMTAD
 70
1
  9
$DIMZIN
 70
8
  9
$DIMBLK
  1

  9
$DIMASO
 70
1
  9
$DIMSHO
 70
1
  9
$DIMPOST
  1

  9
$DIMAPOST
  1

  9
$DIMALT
 70
0
  9
$DIMALTD
 70
3
  9
$DIMALTF
 40
0.03937007874
  9
$DIMLFAC
 40
1.0
  9
$DIMTOFL
 70
1
  9
$DIMTVP
 40
0.0
  9
$DIMTIX
 70
0
  9
$DIMSOXD
 70
0
  9
$DIMSAH
 70
0
  9
$DIMBLK1
  1

  9
$DIMBLK2
  1

  9
$DIMSTYLE
  2
ISO-25
  9
$DIMCLRD
 70
0
  9
$DIMCLRE
 70
0
  9
$DIMCLRT
 70
0
  9
$DIMTFAC
 40
1.0
  9
$DIMGAP
 40
0.625
  9
$DIMJUST
 70
0
  9
$DIMSD1
 70
0
  9
$DIMSD2
 70
0
  9
$DIMTOLJ
 70
0
  9
$DIMTZIN
 70
8
  9
$DIMALTZ
 70
0
  9
$DIMALTTZ
 70
0
  9
$DIMUPT
 70
0
  9
$DIMDEC
 70
2
  9
$DIMTDEC
 70
2
  9
$DIMALTU
 70
2
  9
$DIMALTTD
 70
3
  9
$DIMTXSTY
  7
Standard
  9
$DIMAUNIT
 70
0
  9
$DIMADEC
 70
0
  9
$DIMALTRND
 40
0.0
  9
$DIMAZIN
 70
0
  9
$DIMDSEP
 70
44
  9
$DIMATFIT
 70
3
  9
$DIMFRAC
 70
0
  9
$DIMLDRBLK
  1

  9
$DIMLUNIT
 70
2
  9
$DIMLWD
 70
-2
  9
$DIMLWE
 70
-2
  9
$DIMTMOVE
 70
0
  9
$DIMFXL
 40
1.0
  9
$DIMFXLON
 70
0
  9
$DIMJOGANG
 40
0.785398163397
  9
$DIMTFILL
 70
0
  9
$DIMTFILLCLR
 70
0
  9
$DIMARCSYM
 70
0
  9
$DIMLTYPE
  6

  9
$DIMLTEX1
  6

  9
$DIMLTEX2
  6

  9
$DIMTXTDIRECTION
 70
0
  9
$LUNITS
 70
2
  9
$LUPREC
 70
4
  9
$SKETCHINC
 40
1.0
  9
$FILLETRAD
 40
10.0
  9
$AUNITS
 70
0
  9
$AUPREC
 70
2
  9
$MENU
  1
.
  9
$ELEVATION
 40
0.0
  9
$PELEVATION
 40
0.0
  9
$THICKNESS
 40
0.0
  9
$LIMCHECK
 70
0
  9
$CHAMFERA
 40
0.0
  9
$CHAMFERB
 40
0.0
  9
$CHAMFERC
 40
0.0
  9
$CHAMFERD
 40
0.0
  9
$SKPOLY
 70
0
  9
$TDCREATE
 40
2461017.719837963
  9
$TDUCREATE
 40
2458532.153996898
  9
$TDUPDATE
 40
2461017.719837963
  9
$TDUUPDATE
 40
2458532.1544311
  9
$TDINDWG
 40
0.0
  9
$TDUSRTIMER
 40
0.0
  9
$USRTIMER
 70
1
  9
$ANGBASE
 50
0.0
  9
$ANGDIR
 70
0
  9
$PDMODE
 70
0
  9
$PDSIZE
 40
0.0
  9
$PLINEWID
 40
0.0
  9
$SPLFRAME
 70
0
  9
$SPLINETYPE
 70
6
  9
$SPLINESEGS
 70
8
  9
$HANDSEED
  5
33
  9
$SURFTAB1
 70
6
  9
$SURFTAB2
 70
6
  9
$SURFTYPE
 70
6
  9
$SURFU
 70
6
  9
$SURFV
 70
6
  9
$UCSBASE
  2

  9
$UCSNAME
  2

  9
$UCSORG
 10
0.0
 20
0.0
 30
0.0
  9
$UCSXDIR
 10
1.0
 20
0.0
 30
0.0
  9
$UCSYDIR
 10
0.0
 20
1.0
 30
0.0
  9
$UCSORTHOREF
  2

  9
$UCSORTHOVIEW
 70
0
  9
$UCSORGTOP
 10
0.0
 20
0.0
 30
0.0
  9
$UCSORGBOTTOM
 10
0.0
 20
0.0
 30
0.0
  9
$UCSORGLEFT
 10
0.0
 20
0.0
 30
0.0
  9
$UCSORGRIGHT
 10
0.0
 20
0.0
 30
0.0
  9
$UCSORGFRONT
 10
0.0
 20
0.0
 30
0.0
  9
$UCSORGBACK
 10
0.0
 20
0.0
 30
0.0
  9
$PUCSBASE
  2

  9
$PUCSNAME
  2

  9
$PUCSORG
 10
0.0
 20
0.0
 30
0.0
  9
$PUCSXDIR
 10
1.0
 20
0.0
 30
0.0
  9
$PUCSYDIR
 10
0.0
 20
1.0
 30
0.0
  9
$PUCSORTHOREF
  2

  9
$PUCSORTHOVIEW
 70
0
  9
$PUCSORGTOP
 10
0.0
 20
0.0
 30
0.0
  9
$PUCSORGBOTTOM
 10
0.0
 20
0.0
 30
0.0
  9
$PUCSORGLEFT
 10
0.0
 20
0.0
 30
0.0
  9
$PUCSORGRIGHT
 10
0.0
 20
0.0
 30
0.0
  9
$PUCSORGFRONT
 10
0.0
 20
0.0
 30
0.0
  9
$PUCSORGBACK
 10
0.0
 20
0.0
 30
0.0
  9
$USERI1
 70
0
  9
$USERI2
 70
0
  9
$USERI3
 70
0
  9
$USERI4
 70
0
  9
$USERI5
 70
0
  9
$USERR1
 40
0.0
  9
$USERR2
 40
0.0
  9
$USERR3
 40
0.0
  9
$USERR4
 40
0.0
  9
$USERR5
 40
0.0
  9
$WORLDVIEW
 70
1
  9
$SHADEDGE
 70
3
  9
$SHADEDIF
 70
70
  9
$TILEMODE
 70
1
  9
$MAXACTVP
 70
64
  9
$PINSBASE
 10
0.0
 20
0.0
 30
0.0
  9
$PLIMCHECK
 70
0
  9
$PEXTMIN
 10
1e+20
 20
1e+20
 30
1e+20
  9
$PEXTMAX
 10
-1e+20
 20
-1e+20
 30
-1e+20
  9
$PLIMMIN
 10
0.0
 20
0.0
  9
$PLIMMAX
 10
420.0
 20
297.0
  9
$UNITMODE
 70
0
  9
$VISRETAIN
 70
1
  9
$PLINEGEN
 70
0
  9
$PSLTSCALE
 70
1
  9
$TREEDEPTH
 70
3020
  9
$CMLSTYLE
  2
Standard
  9
$CMLJUST
 70
0
  9
$CMLSCALE
 40
20.0
  9
$PROXYGRAPHICS
 70
1
  9
$MEASUREMENT
 70
1
  9
$CELWEIGHT
370
-1
  9
$ENDCAPS
280
0
  9
$JOINSTYLE
280
0
  9
$LWDISPLAY
290
0
  9
$INSUNITS
 70
6
  9
$HYPERLINKBASE
  1

  9
$STYLESHEET
  1

  9
$XEDIT
290
1
  9
$CEPSNTYPE
380
0
  9
$PSTYLEMODE
290
1
  9
$FINGERPRINTGUID
  2
{D5BBE4A7-A405-4D46-9F7B-EE69416D30A9}
  9
$VERSIONGUID
  2
{830AC890-11A0-457C-AAD5-517A8187DC25}
  9
$EXTNAMES
290
1
  9
$PSVPSCALE
 40
0.0
  9
$OLESTARTUP
290
0
  9
$SORTENTS
280
127
  9
$INDEXCTL
280
0
  9
$HIDETEXT
280
1
  9
$XCLIPFRAME
280
1
  9
$HALOGAP
280
0
  9
$OBSCOLOR
 70
257
  9
$OBSLTYPE
280
0
  9
$INTERSECTIONDISPLAY
280
0
  9
$INTERSECTIONCOLOR
 70
257
  9
$DIMASSOC
280
2
  9
$PROJECTNAME
  1

  9
$CAMERADISPLAY
290
0
  9
$LENSLENGTH
 40
50.0
  9
$CAMERAHEIGHT
 40
0.0
  9
$STEPSPERSEC
 40
24.0
  9
$STEPSIZE
 40
100.0
  9
$3DDWFPREC
 40
2.0
  9
$PSOLWIDTH
 40
0.005
  9
$PSOLHEIGHT
 40
0.08
  9
$LOFTANG1
 40
1.570796326795
  9
$LOFTANG2
 40
1.570796326795
  9
$LOFTMAG1
 40
0.0
  9
$LOFTMAG2
 40
0.0
  9
$LOFTPARAM
 70
7
  9
$LOFTNORMALS
280
1
  9
$LATITUDE
 40
37.795
  9
$LONGITUDE
 40
-122.394
  9
$NORTHDIRECTION
 40
0.0
  9
$TIMEZONE
 70
-8000
  9
$LIGHTGLYPHDISPLAY
280
1
  9
$TILEMODELIGHTSYNCH
280
1
  9
$CMATERIAL
347
20
  9
$SOLIDHIST
280
0
  9
$SHOWHIST
280
1
  9
$DWFFRAME
280
2
  9
$DGNFRAME
280
2
  9
$REALWORLDSCALE
290
1
  9
$INTERFERECOLOR
 62
256
  9
$CSHADOW
280
0
  9
$SHADOWPLANELOCATION
 40
0.0
  0
ENDSEC
  0
SECTION
  2
CLASSES
  0
CLASS
  1
ACDBDICTIONARYWDFLT
  2
AcDbDictionaryWithDefault
  3
ObjectDBX Classes
 90
0
 91
0
280
0
281
0
  0
CLASS
  1
SUN
  2
AcDbSun
  3
SCENEOE
 90
1153
 91
0
280
0
281
0
  0
CLASS
  1
VISUALSTYLE
  2
AcDbVisualStyle
  3
ObjectDBX Classes
 90
4095
 91
0
280
0
281
0
  0
CLASS
  1
MATERIAL
  2
AcDbMaterial
  3
ObjectDBX Classes
 90
1153
 91
0
280
0
281
0
  0
CLASS
  1
SCALE
  2
AcDbScale
  3
ObjectDBX Classes
 90
1153
 91
0
280
0
281
0
  0
CLASS
  1
TABLESTYLE
  2
AcDbTableStyle
  3
ObjectDBX Classes
 90
4095
 91
0
280
0
281
0
  0
CLASS
  1
MLEADERSTYLE
  2
AcDbMLeaderStyle
  3
ACDB_MLEADERSTYLE_CLASS
 90
4095
 91
0
280
0
281
0
  0
CLASS
  1
DICTIONARYVAR
  2
AcDbDictionaryVar
  3
ObjectDBX Classes
 90
0
 91
0
280
0
281
0
  0
CLASS
  1
CELLSTYLEMAP
  2
AcDbCellStyleMap
  3
ObjectDBX Classes
 90
1152
 91
0
280
0
281
0
  0
CLASS
  1
MENTALRAYRENDERSETTINGS
  2
AcDbMentalRayRenderSettings
  3
SCENEOE
 90
1024
 91
0
280
0
281
0
  0
CLASS
  1
ACDBDETAILVIEWSTYLE
  2
AcDbDetailViewStyle
  3
ObjectDBX Classes
 90
1025
 91
0
280
0
281
0
  0
CLASS
  1
ACDBSECTIONVIEWSTYLE
  2
AcDbSectionViewStyle
  3
ObjectDBX Classes
 90
1025
 91
0
280
0
281
0
  0
CLASS
  1
RASTERVARIABLES
  2
AcDbRasterVariables
  3
ISM
 90
0
 91
0
280
0
281
0
  0
CLASS
  1
LAYOUT
  2
AcDbLayout
  3
ObjectDBX Classes
 90
0
 91
0
280
0
281
0
  0
CLASS
  1
ACDBPLACEHOLDER
  2
AcDbPlaceHolder
  3
ObjectDBX Classes
 90
0
 91
0
280
0
281
0
  0
ENDSEC
  0
SECTION
  2
TABLES
  0
TABLE
  2
VPORT
  5
8
330
0
100
AcDbSymbolTable
 70
1
  0
VPORT
  5
23
330
8
100
AcDbSymbolTableRecord
100
AcDbViewportTableRecord
  2
*Active
 70
0
 10
0.0
 20
0.0
 11
1.0
 21
1.0
 12
0.0
 22
0.0
 13
0.0
 23
0.0
 14
0.5
 24
0.5
 15
0.5
 25
0.5
 16
0.0
 26
0.0
 36
1.0
 17
0.0
 27
0.0
 37
0.0
 40
1000.0
 41
1.34
 42
50.0
 43
0.0
 44
0.0
 50
0.0
 51
0.0
 71
0
 72
1000
 73
1
 74
3
 75
0
 76
0
 77
0
 78
0
281
0
 65
0
146
0.0
  0
ENDTAB
  0
TABLE
  2
LTYPE
  5
2
330
0
100
AcDbSymbolTable
 70
3
  0
LTYPE
  5
24
330
2
100
AcDbSymbolTableRecord
100
AcDbLinetypeTableRecord
  2
ByBlock
 70
0
  3

 72
65
 73
0
 40
0.0
  0
LTYPE
  5
25
330
2
100
AcDbSymbolTableRecord
100
AcDbLinetypeTableRecord
  2
ByLayer
 70
0
  3

 72
65
 73
0
 40
0.0
  0
LTYPE
  5
26
330
2
100
AcDbSymbolTableRecord
100
AcDbLinetypeTableRecord
  2
Continuous
 70
0
  3

 72
65
 73
0
 40
0.0
  0
ENDTAB
  0
TABLE
  2
LAYER
  5
1
330
0
100
AcDbSymbolTable
 70
2
  0
LAYER
  5
27
330
1
100
AcDbSymbolTableRecord
100
AcDbLayerTableRecord
  2
0
 70
0
 62
7
  6
Continuous
370
-3
390
13
347
21
  0
LAYER
  5
28
330
1
100
AcDbSymbolTableRecord
100
AcDbLayerTableRecord
  2
Defpoints
 70
0
 62
7
  6
Continuous
290
0
370
-3
390
13
347
21
  0
ENDTAB
  0
TABLE
  2
STYLE
  5
5
330
0
100
AcDbSymbolTable
 70
1
  0
STYLE
  5
29
330
5
100
AcDbSymbolTableRecord
100
AcDbTextStyleTableRecord
  2
Standard
 70
0
 40
0.0
 41
1.0
 50
0.0
 71
0
 42
2.5
  3
txt
  4

  0
ENDTAB
  0
TABLE
  2
VIEW
  5
7
330
0
100
AcDbSymbolTable
 70
0
  0
ENDTAB
  0
TABLE
  2
UCS
  5
6
330
0
100
AcDbSymbolTable
 70
0
  0
ENDTAB
  0
TABLE
  2
APPID
  5
3
330
0
100
AcDbSymbolTable
 70
3
  0
APPID
  5
2A
330
3
100
AcDbSymbolTableRecord
100
AcDbRegAppTableRecord
  2
ACAD
 70
0
  0
APPID
  5
30
330
3
100
AcDbSymbolTableRecord
100
AcDbRegAppTableRecord
  2
HATCHBACKGROUNDCOLOR
 70
0
  0
APPID
  5
31
330
3
100
AcDbSymbolTableRecord
100
AcDbRegAppTableRecord
  2
EZDXF
 70
0
  0
ENDTAB
  0
TABLE
  2
DIMSTYLE
  5
4
330
0
100
AcDbSymbolTable
 70
1
100
AcDbDimStyleTable
  0
DIMSTYLE
105
2B
330
4
100
AcDbSymbolTableRecord
100
AcDbDimStyleTableRecord
  2
Standard
 70
0
 40
1.0
 41
2.5
 42
0.625
 43
3.75
 44
1.25
 45
0.0
 46
0.0
 47
0.0
 48
0.0
 49
2.5
140
2.5
141
2.5
142
0.0
143
0.03937007874
144
1.0
145
0.0
146
1.0
147
0.625
148
0.0
 69
0
 70
0
 71
0
 72
0
 73
0
 74
0
 75
0
 76
0
 77
1
 78
8
 79
3
170
0
171
3
172
1
173
0
174
0
175
0
176
0
177
0
178
0
179
2
271
2
272
2
273
2
274
3
275
0
276
0
277
2
278
44
279
0
280
0
281
0
282
0
283
0
284
8
285
0
286
0
288
0
289
3
290
0
371
-2
372
-2
  0
ENDTAB
  0
TABLE
  2
BLOCK_RECORD
  5
9
330
0
100
AcDbSymbolTable
 70
2
  0
BLOCK_RECORD
  5
17
330
9
100
AcDbSymbolTableRecord
100
AcDbBlockTableRecord
  2
*Model_Space
340
1A
 70
0
280
1
281
0
  0
BLOCK_RECORD
  5
1B
330
9
100
AcDbSymbolTableRecord
100
AcDbBlockTableRecord
  2
*Paper_Space
340
1E
 70
0
280
1
281
0
  0
ENDTAB
  0
ENDSEC
  0
SECTION
  2
BLOCKS
  0
BLOCK
  5
18
330
17
100
AcDbEntity
  8
0
100
AcDbBlockBegin
  2
*Model_Space
 70
0
 10
0.0
 20
0.0
 30
0.0
  3
*Model_Space
  1

  0
ENDBLK
  5
19
330
17
100
AcDbEntity
  8
0
100
AcDbBlockEnd
  0
BLOCK
  5
1C
330
1B
100
AcDbEntity
  8
0
100
AcDbBlockBegin
  2
*Paper_Space
 70
0
 10
0.0
 20
0.0
 30
0.0
  3
*Paper_Space
  1

  0
ENDBLK
  5
1D
330
1B
100
AcDbEntity
  8
0
100
AcDbBlockEnd
  0
ENDSEC
  0
SECTION
  2
ENTITIES
  0
LWPOLYLINE
  5
2F
330
17
100
AcDbEntity
  8
0
100
AcDbPolyline
 90
337
 70
1
 10
-3.2629537396816612
 20
17.701094997703393
 10
-3.1256671980047455
 20
17.726539554219745
 10
-2.9535300717377506
 20
17.755345430049044
 10
-2.815820370724155
 20
17.77839013071248
 10
-2.6432067299225004
 20
17.804187412176805
 10
-2.5051158172811765
 20
17.824825237348264
 10
-2.1936481812926525
 20
17.8658307295438
 10
-1.881512338817764
 20
17.90139411662892
 10
-1.5688033694578483
 20
17.93150456565142
 10
-1.3948106794225192
 20
17.94519808733221
 10
-1.2556165273942559
 20
17.956152904676834
 10
-0.942047212372989
 20
17.975331625582328
 10
-0.6281909406450172
 20
17.989034886343724
 10
-0.31414331587110256
 20
17.997258512815044
 10
1.102182119232618e-15
 20
18.0
 10
0.3141433158711048
 20
17.997258512815044
 10
0.6281909406450195
 20
17.989034886343724
 10
0.8025555360494483
 20
17.981421963698505
 10
0.9420472123729915
 20
17.975331625582328
 10
1.1162523873848023
 20
17.964676780634832
 10
1.2556165273942543
 20
17.956152904676834
 10
1.4296092174295834
 20
17.94245938299605
 10
1.5688033694578465
 20
17.93150456565142
 10
1.8815123388177621
 20
17.90139411662892
 10
2.1936481812926547
 20
17.865830729543795
 10
2.3666857568418345
 20
17.84304990054628
 10
2.5051158172811783
 20
17.824825237348264
 10
2.6777294580828332
 20
17.799027955883943
 10
2.8158203707241567
 20
17.77839013071248
 10
3.1256671980047477
 20
17.726539554219745
 10
3.4345619167778088
 20
17.66928930205795
 10
3.605588871189954
 20
17.634493474919367
 10
3.74241043471967
 20
17.6066568132085
 10
4.0491189781895685
 20
17.538661166134233
 10
4.354594120794018
 20
17.465323072967937
 10
4.523565615822549
 20
17.421624073098656
 10
4.658742811845373
 20
17.38666487320323
 10
4.961472404705985
 20
17.30271052688974
 10
5.1288158937633614
 20
17.253141127136907
 10
5.262690685009262
 20
17.213485607334636
 10
5.429143581531369
 20
17.161003210655817
 10
5.562305898749054
 20
17.119017293312762
 10
5.727817499571147
 20
17.063637886354396
 10
5.860226780228821
 20
17.019334360787703
 10
6.024746668913942
 20
16.961074812653617
 10
6.156362579862039
 20
16.91446717414635
 10
6.450623091815407
 20
16.804447676949632
 10
6.742918681486415
 20
16.689309382202175
 10
7.033160312806927
 20
16.569087362143925
 10
7.3212595753644045
 20
16.443818237566816
 10
7.6071287113325905
 20
16.3135401666597
 10
7.890680642203394
 20
16.178292833385008
 10
8.171828995311843
 20
16.03811743539062
 10
8.450488130146034
 20
15.893056671460684
 10
8.603868704750498
 20
15.809777814265374
 10
8.726573164434068
 20
15.743154728509124
 10
9.000000000000002
 20
15.588457268119894
 10
9.270685348380976
 20
15.429011412638022
 10
9.419497241612483
 20
15.33781936718116
 10
9.538546756197688
 20
15.26486573081567
 10
9.68574446401591
 20
15.17109044870565
 10
9.803502630270486
 20
15.096070223017634
 10
10.065472262473442
 20
14.922676305990752
 10
10.324375854318829
 20
14.744736797201853
 10
10.580134541264517
 20
14.562305898749054
 10
10.72043224986027
 20
14.458491055472507
 10
10.832670416736871
 20
14.37543918085127
 10
11.081906555861849
 20
14.184193564920996
 10
11.218495713103643
 20
14.075545643423485
 10
11.327767038897075
 20
13.988627306225476
 10
11.462439225264093
 20
13.877612122845548
 10
11.570176974357707
 20
13.788799976141604
 10
11.702891167397388
 20
13.675451347179544
 10
11.80906252182913
 20
13.584772444009896
 10
12.044350914459448
 20
13.376606858593096
 10
12.17302845149585
 20
13.258695620010858
 10
12.275970481124972
 20
13.164366629145068
 10
12.402570585089961
 20
13.044227616339874
 10
12.50385066826195
 20
12.948116406095721
 10
12.628334775537454
 20
12.825786214574684
 10
12.727922061357855
 20
12.727922061357855
 10
12.850252252878892
 20
12.603437954082352
 10
12.948116406095721
 20
12.50385066826195
 10
13.068255418900913
 20
12.377250564296965
 10
13.164366629145068
 20
12.275970481124972
 10
13.376606858593096
 20
12.044350914459448
 10
13.492254406046875
 20
11.913635140775938
 10
13.584772444009896
 20
11.80906252182913
 10
13.698121072971956
 20
11.676348328789452
 10
13.788799976141604
 20
11.570176974357707
 10
13.899815159521534
 20
11.435504787990688
 10
13.988627306225476
 20
11.327767038897072
 10
14.184193564920994
 20
11.081906555861849
 10
14.290441129326704
 20
10.943442034125749
 10
14.37543918085127
 20
10.83267041673687
 10
14.479254024127817
 20
10.692372708141118
 10
14.562305898749054
 20
10.580134541264517
 10
14.744736797201853
 20
10.324375854318829
 10
14.922676305990752
 20
10.065472262473445
 10
15.096070223017634
 20
9.803502630270486
 10
15.264865730815668
 20
9.538546756197688
 10
15.356057776272532
 20
9.389734862966181
 10
15.281037550584516
 20
9.507493029220758
 10
15.203973587461459
 20
9.623923976866516
 10
15.124889361333057
 20
9.73899223990891
 10
15.043808962020703
 20
9.852662767440327
 10
14.960757087399466
 20
9.964900934316928
 10
14.8757590358749
 20
10.075672551705807
 10
14.788840698676891
 20
10.18494387749924
 10
14.700028551972949
 20
10.292681626592856
 10
14.609349648803299
 20
10.3988529810246
 10
14.516831610840278
 20
10.503425599971408
 10
14.422502619974487
 20
10.60636762960053
 10
14.326391409730334
 20
10.70764771277252
 10
14.228527256513505
 20
10.807234998592921
 10
14.128939970693102
 20
10.90509915180975
 10
14.02765988752111
 20
11.001210362053905
 10
13.92471785789199
 20
11.095539352919696
 10
13.820145238945182
 20
11.188057390882719
 10
13.71397388451344
 20
11.278736294052365
 10
13.606236135419824
 20
11.367548440756309
 10
13.496964809626391
 20
11.454466777954316
 10
13.38619319223751
 20
11.539464829478884
 10
13.273955025360909
 20
11.622516704100121
 10
13.160284497829492
 20
11.703597103412477
 10
13.045216234787098
 20
11.782681329540875
 10
12.928785287141341
 20
11.859745292663934
 10
12.811027120886763
 20
11.93476551835195
 10
12.691977606301558
 20
12.007719154717439
 10
12.571673007021122
 20
12.078583979376052
 10
12.45014996899182
 20
12.147338406215708
 10
12.327445509308252
 20
12.213961491971958
 10
12.203597004937498
 20
12.278432942607484
 10
12.078642181333743
 20
12.340733119493878
 10
11.95261910094672
 20
12.400843045393742
 10
11.825566151627527
 20
12.458744410241348
 10
11.697522034935314
 20
12.514419576720066
 10
11.568525754348421
 20
12.567851585634841
 10
11.438616603383526
 20
12.619024161078155
 10
11.307834153626475
 20
12.66792171538781
 10
11.176218242678377
 20
12.714529353895076
 10
11.043808962020703
 20
12.758832879461771
 10
10.910646644803018
 20
12.800818796804826
 10
10.776771853557117
 20
12.840474316607093
 10
10.642225367841291
 20
12.877787359413087
 10
10.507048171818465
 20
12.912746559308513
 10
10.371281441772044
 20
12.945341267382425
 10
10.234966533563197
 20
12.975561554970987
 10
10.098144970033482
 20
13.003398216681854
 10
9.960858428356566
 20
13.028842773198207
 10
9.823148727342971
 20
13.051887473861644
 10
9.685057814701647
 20
13.072525299033105
 10
9.546627754262303
 20
13.090749962231119
 10
9.407900713162354
 20
13.106555912046728
 10
9.268918949002389
 20
13.119938333834506
 10
9.129724796974127
 20
13.130893151179135
 10
8.990360656964674
 20
13.139417027137132
 10
8.850868980641133
 20
13.145507365253309
 10
8.711292258519391
 20
13.149162310351672
 10
8.571673007021124
 20
13.150380749100542
 10
8.432053755522858
 20
13.149162310351672
 10
8.201284987944252
 20
13.294319258484816
 10
7.968018029510692
 20
13.43542662818686
 10
7.732323935597415
 20
13.572441436786063
 10
7.494274500908653
 20
13.705321948244425
 10
7.253942237608248
 20
13.834027685870918
 10
7.01140035323175
 20
13.95851944465106
 10
6.766722728386696
 20
14.078759303189145
 10
6.519983894247862
 20
14.194710635259476
 10
6.271259009854339
 20
14.306338120963058
 10
6.020623839215362
 20
14.413607757486385
 10
5.768154728231869
 20
14.516486869459028
 10
5.5139285814407835
 20
14.614944118906866
 10
5.258022838589171
 20
14.708949514797943
 10
5.0005154510453105
 20
14.798474422178021
 10
4.74148485805398
 20
14.883491570893064
 10
4.481009962843092
 20
14.963975063895989
 10
4.219170108589004
 20
15.039900385135171
 10
3.9560450542478214
 20
15.111244407022255
 10
3.6917149502600437
 20
15.177985397477048
 10
3.426260314135975
 20
15.240103026547324
 10
3.159762005929286
 20
15.297578372601519
 10
2.892301203606295
 20
15.350393928092451
 10
2.623959378318331
 20
15.398533604890282
 10
2.354818269584866
 20
15.441982739183118
 10
2.0849598603948474
 20
15.480728095943753
 10
1.8144663522338966
 20
15.514757872961184
 10
1.5434201400449243
 20
15.544061704435677
 10
1.2719037871298458
 20
15.56863066413629
 10
1.0000000000000027
 20
15.588457268119896
 10
0.7277916031829372
 20
15.603535477010857
 10
0.4553615139932701
 20
15.613860697840677
 10
0.18279271727525437
 20
15.619429785447073
 10
-0.08983175987519854
 20
15.620241043432003
 10
-0.36242887340137475
 20
15.616294224678432
 10
-0.6349155875817818
 20
15.607590531425588
 10
-0.9072089003236474
 20
15.594132614902747
 10
-1.1792258684461467
 20
15.57592457452165
 10
-1.4508836329456942
 20
15.552971956627786
 10
-1.7220994442356266
 20
15.525281752810908
 10
-1.9927906873524899
 20
15.492862397775344
 10
-2.2628749071213887
 20
15.45572376677069
 10
-2.5322698332726192
 20
15.413877172583717
 10
-2.8008934055019874
 20
15.367335362092398
 10
-3.0686637984671723
 20
15.316112512383064
 10
-3.335499446712531
 20
15.260224226431944
 10
-3.6013190695147146
 20
15.199687528352339
 10
-3.8660416956415586
 20
15.134520858208923
 10
-4.129586688016727
 20
15.064744066400698
 10
-4.391873768282519
 20
14.990378407614395
 10
-4.652823041253456
 20
14.91144653435008
 10
-4.912355019253121
 20
14.82797249002097
 10
-5.170390646326869
 20
14.739981701629606
 10
-5.426851322323044
 20
14.64750097202252
 10
-5.681658926835351
 20
14.550558471725825
 10
-5.93473584299908
 20
14.449183730364219
 10
-6.1860049811339515
 20
14.343407627665957
 10
-6.435389802226397
 20
14.233262384056596
 10
-6.682814341244062
 20
14.118781550844346
 10
-6.928203230275507
 20
14.000000000000004
 10
-7.171481721488001
 20
13.87695391353461
 10
-7.412575709896426
 20
13.749680772478083
 10
-7.651411755936381
 20
13.618219345462112
 10
-7.887917107834587
 20
13.482609676910863
 10
-8.122019723769782
 20
13.342893074843051
 10
-8.353648293817344
 20
13.199112098289135
 10
-8.582732261670996
 20
13.051310544327412
 10
-8.809201846134952
 20
12.899533434743
 10
-9.032988062379921
 20
12.743827002313784
 10
-9.25402274295657
 20
12.58423867672743
 10
-9.472238558559983
 20
12.420817070133893
 10
-9.687569038538822
 20
12.253611962337636
 10
-9.899948591142934
 20
12.082674285634248
 10
-10.10931252350323
 20
11.90805610929596
 10
-10.315597061337755
 20
11.729810623710847
 10
-10.518739368377963
 20
11.547992124180531
 10
-10.718677565509248
 20
11.362655994381278
 10
-10.915350749619918
 20
11.173858689493613
 10
-11.10869901215288
 20
10.98165771900553
 10
-11.298663457354351
 20
10.786111629194528
 10
-11.485186220214104
 20
10.587279985293865
 10
-11.668210484091682
 20
10.385223353348401
 10
-11.847680498023314
 20
10.180003281765583
 10
-12.02354159370419
 20
9.971682282567235
 10
-12.195740202140957
 20
9.760323812347766
 10
-12.364223869969369
 20
9.545992252944675
 10
-12.528941275432057
 20
9.328752891827232
 10
-12.689842244011675
 20
9.108671902209274
 10
-12.8468777637145
 20
8.885816322892225
 10
-12.999999999999998
 20
8.660254037844389
 10
-12.998781561251128
 20
8.799873289342655
 10
-12.995126616152763
 20
8.939450011464396
 10
-12.98903627803659
 20
9.07894168778794
 10
-12.980512402078592
 20
9.21830582779739
 10
-12.969557584733963
 20
9.357499979825652
 10
-12.956175162946185
 20
9.496481743985617
 10
-12.940369213130573
 20
9.63520878508557
 10
-12.922144549932561
 20
9.773638845524914
 10
-12.901506724761099
 20
9.911729758166235
 10
-12.878462024097661
 20
10.049439459179833
 10
-12.85301746758131
 20
10.186726000856748
 10
-12.825180805870442
 20
10.323547564386466
 10
-12.79496051828188
 20
10.459862472595308
 10
-12.762365810207971
 20
10.59562920264173
 10
-12.727406610312544
 20
10.730806398664555
 10
-12.690093567506548
 20
10.865352884380385
 10
-12.65043804770428
 20
10.999227675626283
 10
-12.608452130361226
 20
11.132389992843967
 10
-12.564148604794532
 20
11.264799273501644
 10
-12.517540966287264
 20
11.396415184449738
 10
-12.468643411977611
 20
11.527197634206793
 10
-12.417470836534296
 20
11.657106785171685
 10
-12.36403882761952
 20
11.786103065758578
 10
-12.308363661140804
 20
11.91414718245079
 10
-12.250462296293197
 20
12.041200131769987
 10
-12.190352370393333
 20
12.167223212157008
 10
-12.12805219350694
 20
12.292178035760763
 10
-12.063580742871412
 20
12.416026540131515
 10
-11.996957657115164
 20
12.538730999815085
 10
-11.928203230275507
 20
12.660254037844389
 10
-11.857338405616897
 20
12.780558637124823
 10
-11.784384769251407
 20
12.899608151710027
 10
-11.709364543563389
 20
13.017366317964605
 10
-11.632300580440331
 20
13.133797265610362
 10
-11.553216354311932
 20
13.248865528652757
 10
-11.472135954999576
 20
13.362536056184172
 10
-11.389084080378339
 20
13.474774223060777
 10
-11.304086028853774
 20
13.585545840449655
 10
-11.217167691655764
 20
13.694817166243089
 10
-11.128355544951821
 20
13.802554915336703
 10
-11.037676641782173
 20
13.908726269768446
 10
-10.945158603819152
 20
14.013298888715255
 10
-10.850829612953362
 20
14.116240918344374
 10
-10.754718402709205
 20
14.217521001516367
 10
-10.656854249492378
 20
14.317108287336769
 10
-10.557266963671974
 20
14.414972440553598
 10
-10.455986880499985
 20
14.511083650797751
 10
-10.353044850870862
 20
14.605412641663543
 10
-10.248472231924055
 20
14.697930679626564
 10
-10.14230087749231
 20
14.788609582796214
 10
-10.034563128398696
 20
14.877421729500156
 10
-9.925291802605265
 20
14.964340066698163
 10
-9.814520185216383
 20
15.049338118222732
 10
-9.702282018339783
 20
15.132389992843967
 10
-9.588611490808365
 20
15.213470392156324
 10
-9.321639430229343
 20
15.37849765183429
 10
-9.051827907979126
 20
15.53884047215266
 10
-8.779259111261105
 20
15.694450011135087
 10
-8.504016067171209
 20
15.845278868608569
 10
-8.226182617406991
 20
15.99128110064201
 10
-8.104659579377689
 20
16.060035527481666
 10
-7.981955119694118
 20
16.126658613237918
 10
-7.858106615323368
 20
16.191130063873445
 10
-7.73315179171961
 20
16.253430240759837
 10
-7.607128711332589
 20
16.3135401666597
 10
-7.3212595753644045
 20
16.443818237566816
 10
-7.16120442949914
 20
16.51341219566521
 10
-7.033160312806929
 20
16.569087362143925
 10
-6.742918681486417
 20
16.689309382202175
 10
-6.580532242780299
 20
16.75327510150632
 10
-6.450623091815405
 20
16.804447676949632
 10
-6.156362579862037
 20
16.914467174146353
 10
-5.860226780228819
 20
17.019334360787703
 10
-5.694715179406726
 20
17.074713767746072
 10
-5.562305898749052
 20
17.119017293312766
 10
-5.3958530022269455
 20
17.171499689991585
 10
-5.26269068500926
 20
17.21348560733464
 10
-5.095347195951884
 20
17.263055007087473
 10
-4.961472404705983
 20
17.30271052688974
 10
-4.658742811845375
 20
17.38666487320323
 10
-4.35459412079402
 20
17.465323072967937
 10
-4.184885708235993
 20
17.506066458060324
 10
-4.04911897818957
 20
17.538661166134233
 10
-3.878725342928514
 20
17.57643652561994
 10
-3.7424104347196683
 20
17.606656813208502
 10
-3.4345619167778065
 20
17.66928930205795
 10
-3.2629537396816612
 20
17.701094997703393
  0
ENDSEC
  0
SECTION
  2
OBJECTS
  0
DICTIONARY
  5
A
330
0
100
AcDbDictionary
281
1
  3
ACAD_COLOR
350
B
  3
ACAD_GROUP
350
C
  3
ACAD_LAYOUT
350
D
  3
ACAD_MATERIAL
350
E
  3
ACAD_MLEADERSTYLE
350
F
  3
ACAD_MLINESTYLE
350
10
  3
ACAD_PLOTSETTINGS
350
11
  3
ACAD_PLOTSTYLENAME
350
12
  3
ACAD_SCALELIST
350
14
  3
ACAD_TABLESTYLE
350
15
  3
ACAD_VISUALSTYLE
350
16
  3
EZDXF_META
350
2D
  0
DICTIONARY
  5
B
330
A
100
AcDbDictionary
281
1
  0
DICTIONARY
  5
C
330
A
100
AcDbDictionary
281
1
  0
DICTIONARY
  5
D
330
A
100
AcDbDictionary
281
1
  3
Model
350
1A
  3
Layout1
350
1E
  0
DICTIONARY
  5
E
330
A
100
AcDbDictionary
281
1
  3
ByBlock
350
1F
  3
ByLayer
350
20
  3
Global
350
21
  0
DICTIONARY
  5
F
330
A
100
AcDbDictionary
281
1
  3
Standard
350
2C
  0
DICTIONARY
  5
10
330
A
100
AcDbDictionary
281
1
  3
Standard
350
22
  0
DICTIONARY
  5
11
330
A
100
AcDbDictionary
281
1
  0
ACDBDICTIONARYWDFLT
  5
12
330
A
100
AcDbDictionary
281
1
  3
Normal
350
13
100
AcDbDictionaryWithDefault
340
13
  0
ACDBPLACEHOLDER
  5
13
330
12
  0
DICTIONARY
  5
14
330
A
100
AcDbDictionary
281
1
  0
DICTIONARY
  5
15
330
A
100
AcDbDictionary
281
1
  0
DICTIONARY
  5
16
330
A
100
AcDbDictionary
281
1
  0
LAYOUT
  5
1A
330
D
100
AcDbPlotSettings
  1

  4
A3
  6

 40
7.5
 41
20.0
 42
7.5
 43
20.0
 44
420.0
 45
297.0
 46
0.0
 47
0.0
 48
0.0
 49
0.0
140
0.0
141
0.0
142
1.0
143
1.0
 70
1024
 72
1
 73
0
 74
5
  7

 75
16
 76
0
 77
2
 78
300
147
1.0
148
0.0
149
0.0
100
AcDbLayout
  1
Model
 70
1
 71
0
 10
0.0
 20
0.0
 11
420.0
 21
297.0
 12
0.0
 22
0.0
 32
0.0
 14
1e+20
 24
1e+20
 34
1e+20
 15
-1e+20
 25
-1e+20
 35
-1e+20
146
0.0
 13
0.0
 23
0.0
 33
0.0
 16
1.0
 26
0.0
 36
0.0
 17
0.0
 27
1.0
 37
0.0
 76
1
330
17
  0
LAYOUT
  5
1E
330
D
100
AcDbPlotSettings
  1

  4
A3
  6

 40
7.5
 41
20.0
 42
7.5
 43
20.0
 44
420.0
 45
297.0
 46
0.0
 47
0.0
 48
0.0
 49
0.0
140
0.0
141
0.0
142
1.0
143
1.0
 70
0
 72
1
 73
0
 74
5
  7

 75
16
 76
0
 77
2
 78
300
147
1.0
148
0.0
149
0.0
100
AcDbLayout
  1
Layout1
 70
1
 71
1
 10
0.0
 20
0.0
 11
420.0
 21
297.0
 12
0.0
 22
0.0
 32
0.0
 14
1e+20
 24
1e+20
 34
1e+20
 15
-1e+20
 25
-1e+20
 35
-1e+20
146
0.0
 13
0.0
 23
0.0
 33
0.0
 16
1.0
 26
0.0
 36
0.0
 17
0.0
 27
1.0
 37
0.0
 76
1
330
1B
  0
MATERIAL
  5
1F
102
{ACAD_REACTORS
330
E
102
}
330
E
100
AcDbMaterial
  1
ByBlock
  2

 70
0
 40
1.0
 71
1
 41
1.0
 91
-1023410177
 42
1.0
 72
1
  3

 73
1
 74
1
 75
1
 44
0.5
 73
0
 45
1.0
 46
1.0
 77
1
  4

 78
1
 79
1
170
1
 48
1.0
171
1
  6

172
1
173
1
174
1
140
1.0
141
1.0
175
1
  7

176
1
177
1
178
1
143
1.0
179
1
  8

270
1
271
1
272
1
145
1.0
146
1.0
273
1
  9

274
1
275
1
276
1
 42
1.0
 72
1
  3

 73
1
 74
1
 75
1
 94
63
  0
MATERIAL
  5
20
102
{ACAD_REACTORS
330
E
102
}
330
E
100
AcDbMaterial
  1
ByLayer
  2

 70
0
 40
1.0
 71
1
 41
1.0
 91
-1023410177
 42
1.0
 72
1
  3

 73
1
 74
1
 75
1
 44
0.5
 73
0
 45
1.0
 46
1.0
 77
1
  4

 78
1
 79
1
170
1
 48
1.0
171
1
  6

172
1
173
1
174
1
140
1.0
141
1.0
175
1
  7

176
1
177
1
178
1
143
1.0
179
1
  8

270
1
271
1
272
1
145
1.0
146
1.0
273
1
  9

274
1
275
1
276
1
 42
1.0
 72
1
  3

 73
1
 74
1
 75
1
 94
63
  0
MATERIAL
  5
21
102
{ACAD_REACTORS
330
E
102
}
330
E
100
AcDbMaterial
  1
Global
  2

 70
0
 40
1.0
 71
1
 41
1.0
 91
-1023410177
 42
1.0
 72
1
  3

 73
1
 74
1
 75
1
 44
0.5
 73
0
 45
1.0
 46
1.0
 77
1
  4

 78
1
 79
1
170
1
 48
1.0
171
1
  6

172
1
173
1
174
1
140
1.0
141
1.0
175
1
  7

176
1
177
1
178
1
143
1.0
179
1
  8

270
1
271
1
272
1
145
1.0
146
1.0
273
1
  9

274
1
275
1
276
1
 42
1.0
 72
1
  3

 73
1
 74
1
 75
1
 94
63
  0
MLINESTYLE
  5
22
102
{ACAD_REACTORS
330
10
102
}
330
10
100
AcDbMlineStyle
  2
Standard
 70
0
  3

 62
256
 51
90.0
 52
90.0
 71
2
 49
0.5
 62
256
  6
BYLAYER
 49
-0.5
 62
256
  6
BYLAYER
  0
MLEADERSTYLE
  5
2C
102
{ACAD_REACTORS
330
F
102
}
330
F
100
AcDbMLeaderStyle
179
2
170
2
171
1
172
0
 90
2
 40
0.0
 41
0.0
173
1
 91
-1056964608
 92
-2
290
1
 42
2.0
291
1
 43
8.0
  3
Standard
 44
4.0
300

342
29
174
1
175
1
176
0
178
1
 93
-1056964608
 45
4.0
292
0
297
0
 46
4.0
 94
-1056964608
 47
1.0
 49
1.0
140
1.0
294
1
141
0.0
177
0
142
1.0
295
0
296
0
143
3.75
271
0
272
9
273
9
  0
DICTIONARY
  5
2D
330
A
100
AcDbDictionary
280
1
281
1
  3
CREATED_BY_EZDXF
350
2E
  3
WRITTEN_BY_EZDXF
350
32
  0
DICTIONARYVAR
  5
2E
330
2D
100
DictionaryVariables
280
0
  1
1.4.3 @ 2025-12-07T23:16:34.763296+00:00
  0
DICTIONARYVAR
  5
32
330
2D
100
DictionaryVariables
280
0
  1
1.4.3 @ 2025-12-07T23:16:34.767298+00:00
  0
ENDSEC
  0
EOF
